<svg width="62" height="66" viewBox="0 0 62 66" fill="none" xmlns="http://www.w3.org/2000/svg">
<path d="M4.57031 34.1758C5.69531 34.1758 6.57422 33.2969 6.57422 32.1719C6.57422 31.0469 5.69531 30.168 4.57031 30.168C3.44531 30.168 2.56641 31.0469 2.56641 32.1719C2.56641 33.2969 3.44531 34.1758 4.57031 34.1758ZM14.3438 15.7188H11.2852V34.9316C11.2852 36.9707 10.5645 37.7266 8.57812 37.7266C8.56055 37.7266 8.13867 37.7266 8.10352 37.7266V40.2754C8.13867 40.293 8.63086 40.293 8.68359 40.293C12.5859 40.293 14.3438 38.6055 14.3438 34.8965V15.7188ZM12.7969 12.4668C13.8691 12.4668 14.7129 11.6055 14.7129 10.5508C14.7129 9.47852 13.8691 8.63477 12.7969 8.63477C11.7422 8.63477 10.8809 9.47852 10.8809 10.5508C10.8809 11.6055 11.7422 12.4668 12.7969 12.4668ZM18.1582 20.7637C18.1582 23.4004 19.8281 25 23.2734 25.8262L26.1738 26.5293C28.2656 27.0391 28.9863 27.7949 28.9863 29.1133C28.9863 30.7656 27.457 31.8203 24.9785 31.8203C22.5 31.8203 21.0938 30.8184 20.7246 28.7266H17.666C18.0176 32.1543 20.6895 34.3164 24.9785 34.3164C29.0566 34.3164 32.0625 32.0664 32.0625 28.8848C32.0625 26.2656 30.7266 24.8242 27.0352 23.9277L24.1348 23.2246C22.0957 22.7324 21.1641 21.8711 21.1641 20.6055C21.1641 19.0059 22.6406 17.8984 24.873 17.8984C27.123 17.8984 28.5293 19.0762 28.7578 20.9922H31.6758C31.5527 17.7578 28.8809 15.4023 24.873 15.4023C20.918 15.4023 18.1582 17.6348 18.1582 20.7637Z" transform="translate(-4 -16) scale(2)" fill="#818181"/>
</svg>
