<svg width="58" height="68" viewBox="0 0 58 68" fill="none" xmlns="http://www.w3.org/2000/svg">
<path d="M28.3922 26.4963C27.8715 27.6842 27.2552 28.7776 26.5412 29.7829C25.5679 31.1533 24.7709 32.102 24.1567 32.6287C23.2047 33.4934 22.1846 33.9362 21.0923 33.9614C20.3081 33.9614 19.3624 33.741 18.2615 33.294C17.1571 32.8491 16.1421 32.6287 15.2141 32.6287C14.2407 32.6287 13.1968 32.8491 12.0803 33.294C10.962 33.741 10.0612 33.974 9.3724 33.9971C8.32491 34.0412 7.28082 33.5857 6.23863 32.6287C5.57346 32.0558 4.74146 31.0736 3.74475 29.6822C2.67537 28.1963 1.79619 26.4732 1.10742 24.5089C0.369779 22.3871 0 20.3324 0 18.3433C0 16.0647 0.498564 14.0995 1.49718 12.4526C2.282 11.1298 3.3261 10.0864 4.63286 9.32034C5.93962 8.55431 7.35158 8.16395 8.87214 8.13898C9.70414 8.13898 10.7952 8.39313 12.1511 8.89262C13.5031 9.39379 14.3712 9.64794 14.7518 9.64794C15.0364 9.64794 16.0008 9.35077 17.6357 8.7583C19.1817 8.20886 20.4866 7.98136 21.5555 8.07098C24.4521 8.30184 26.6283 9.42947 28.0756 11.461C25.485 13.0111 24.2035 15.1822 24.229 17.9674C24.2524 20.1368 25.0493 21.9421 26.6156 23.3756C27.3254 24.0408 28.1181 24.555 29 24.9202C28.8087 25.468 28.6068 25.9926 28.3922 26.4963ZM21.7489 0.680189C21.7489 2.38058 21.1199 3.96823 19.866 5.43774C18.3529 7.1847 16.5227 8.19417 14.538 8.03488C14.5128 7.83089 14.4981 7.61619 14.4981 7.39058C14.4981 5.75821 15.2177 4.01125 16.4955 2.58287C17.1335 1.85966 17.9449 1.25832 18.9288 0.778618C19.9107 0.306075 20.8394 0.0447443 21.7128 0C21.7383 0.22731 21.7489 0.454642 21.7489 0.680168V0.680189Z" transform="scale(2)" fill="#FE2B54"/>
</svg>
