<svg width="224" height="54" viewBox="0 0 224 54" fill="none" xmlns="http://www.w3.org/2000/svg">
<path d="M28.9688 34V8.63477H22.8164L15.6094 26.8457H15.4688L8.26172 8.63477H2.10938V34H6.83789V16.8789H6.97852L13.8691 34H17.209L24.0996 16.8789H24.2402V34H28.9688ZM38.4961 8.63477H33.1875V25.0352C33.1875 30.625 37.3184 34.4395 43.8223 34.4395C50.3086 34.4395 54.4395 30.625 54.4395 25.0352V8.63477H49.1309V24.5078C49.1309 27.7598 47.2148 29.8867 43.8223 29.8867C40.4121 29.8867 38.4961 27.7598 38.4961 24.5078V8.63477ZM57.709 26.7578C57.8672 31.5391 61.8926 34.4395 67.9395 34.4395C74.2852 34.4395 78.1699 31.293 78.1699 26.3359C78.1699 22.4863 75.832 20.3242 70.4707 19.252L67.7812 18.707C64.793 18.1094 63.5625 17.1426 63.5625 15.5781C63.5625 13.7148 65.3203 12.4844 67.9395 12.4844C70.6113 12.4844 72.4922 13.7852 72.668 15.9473H77.6777C77.5898 11.2891 73.8633 8.19531 67.9395 8.19531C62.2969 8.19531 58.2539 11.2715 58.2539 15.9121C58.2539 19.6914 60.7324 22.1172 65.7949 23.1191L68.4668 23.6465C71.6484 24.2969 72.8438 25.2461 72.8438 26.916C72.8438 28.7793 70.9102 30.1504 68.0801 30.1504C65.1973 30.1504 63.0527 28.8848 62.7188 26.7578H57.709ZM86.7305 34V8.63477H81.4219V34H86.7305ZM102.164 34.4395C108.387 34.4395 112.729 30.8535 113.326 25.1934H108.158C107.596 28.1992 105.328 30.0449 102.182 30.0449C98.1211 30.0449 95.5723 26.7051 95.5723 21.291C95.5723 15.9473 98.1562 12.5898 102.164 12.5898C105.258 12.5898 107.648 14.6289 108.141 17.7402H113.309C112.904 12.0625 108.264 8.19531 102.164 8.19531C94.8164 8.19531 90.1582 13.1348 90.1582 21.3086C90.1582 29.5 94.7812 34.4395 102.164 34.4395Z" transform="translate(-4 -16) scale(2)" fill="#FE2B54"/>
</svg>
