<svg width="59" height="39" viewBox="0 0 59 39" fill="none" xmlns="http://www.w3.org/2000/svg">
<rect width="30" height="4" rx="2" transform="translate(29 8)" fill="#F7A3B3"/>
<rect width="39" height="4" rx="2" transform="translate(20 17)" fill="#F7A3B3"/>
<rect width="39" height="4" rx="2" transform="translate(20 26)" fill="#F7A3B3"/>
<rect width="39" height="4" rx="2" transform="translate(20 35)" fill="#F7A3B3"/>
<path d="M2.5 29.5H1C0.447715 29.5 0 29.0523 0 28.5V10.1428C0 10.0481 0.0133144 9.95322 0.0409893 9.86262C0.565686 8.14496 1.22904 7.5372 2.863 7.04072C2.95345 7.01324 3.04798 7 3.14252 7H8C8.55229 7 9 6.55228 9 6V1.88707C9 1.08465 9.89752 0.609035 10.5615 1.05959L21.7473 8.64997C22.3408 9.05269 22.3299 9.93079 21.7266 10.3186L10.5408 17.5095C9.87525 17.9373 9 17.4595 9 16.6683V12C9 11.4477 8.55229 11 8 11H4.5C3.94772 11 3.5 11.4477 3.5 12V28.5C3.5 29.0523 3.05228 29.5 2.5 29.5Z" fill="#FF2C57"/>
</svg>
