<?xml version="1.0" encoding="iso-8859-1"?>
<!-- Generator: Adobe Illustrator 16.0.0, SVG Export Plug-In . SVG Version: 6.00 Build 0)  -->
<!DOCTYPE svg PUBLIC "-//W3C//DTD SVG 1.1//EN" "http://www.w3.org/Graphics/SVG/1.1/DTD/svg11.dtd">
<svg version="1.1" id="Capa_1" xmlns="http://www.w3.org/2000/svg" xmlns:xlink="http://www.w3.org/1999/xlink" x="0px" y="0px"
	 width="289.87px" height="289.87px" viewBox="0 0 289.87 289.87" style="enable-background:new 0 0 289.87 289.87;"
	 xml:space="preserve">
<g>
	<path d="M287.365,137.628L149.528,29.611c-2.152-1.853-5.176-2.282-7.749-1.102c-2.57,1.183-4.23,3.753-4.23,6.587v92.927
		L11.965,29.611c-2.141-1.853-5.164-2.282-7.746-1.102C1.648,29.692,0,32.262,0,35.097v219.683c0,2.852,1.667,5.434,4.272,6.604
		c2.606,1.165,5.645,0.703,7.785-1.194l125.485-101.661v96.251c0,2.852,1.678,5.434,4.287,6.604
		c2.594,1.165,5.645,0.703,7.771-1.194l137.837-111.653c1.562-1.388,2.462-3.453,2.432-5.468
		C289.857,140.979,288.938,139,287.365,137.628z"/>
</g>
<g>
</g>
<g>
</g>
<g>
</g>
<g>
</g>
<g>
</g>
<g>
</g>
<g>
</g>
<g>
</g>
<g>
</g>
<g>
</g>
<g>
</g>
<g>
</g>
<g>
</g>
<g>
</g>
<g>
</g>
</svg>
