<svg width="290" height="235" viewBox="0 0 290 235" fill="none" xmlns="http://www.w3.org/2000/svg">
<path d="M287.365 109.777L149.528 1.76046C147.376 -0.0925413 144.352 -0.52154 141.779 0.658459C139.209 1.84146 137.549 4.41146 137.549 7.24546V100.172L11.965 1.76046C9.824 -0.0925413 6.801 -0.52154 4.219 0.658459C1.648 1.84146 0 4.41146 0 7.24646V226.929C0 229.781 1.667 232.363 4.272 233.533C6.878 234.698 9.917 234.236 12.057 232.339L137.542 130.678V226.929C137.542 229.781 139.22 232.363 141.829 233.533C144.423 234.698 147.474 234.236 149.6 232.339L287.437 120.686C288.999 119.298 289.899 117.233 289.869 115.218C289.857 113.128 288.938 111.149 287.365 109.777Z" transform="translate(289.87) scale(-1 1)" fill="black"/>
</svg>
