<svg width="37" height="46" viewBox="0 0 37 46" fill="none" xmlns="http://www.w3.org/2000/svg">
<path d="M0 5.28V1C0 0.447715 0.447715 0 1 0H13.0952C13.6475 0 14.0952 0.447715 14.0952 1V5.28" transform="translate(11.4524 2)" stroke="#FF2C55" stroke-width="3"/>
<path d="M3.13342 1.5H26.819C27.673 1.5 28.3547 2.21201 28.3175 3.06523L26.8168 37.5452C26.7819 38.3475 26.1213 38.98 25.3182 38.98H4.63417C3.83111 38.98 3.17051 38.3475 3.13559 37.5452L1.63484 3.06523C1.5977 2.21201 2.27939 1.5 3.13342 1.5Z" transform="translate(3.52382 5.52002)" stroke="#FF2C55" stroke-width="3"/>
<rect width="37" height="3.52" rx="1.76" transform="translate(0 5.52002)" fill="#FF2C55"/>
<rect width="3.5238" height="28.8901" rx="1.7619" transform="matrix(0.998218 -0.0596741 0.0598029 0.99821 9.68898 11.9615)" fill="#FF2C55"/>
<path d="M5.59156e-05 1.7619C5.59156e-05 0.788834 0.788885 4.40675e-06 1.76195 4.40675e-06V4.40675e-06C2.73502 4.40675e-06 3.52385 0.788833 3.52385 1.7619V27.1282C3.52385 28.1013 2.73502 28.8901 1.76195 28.8901V28.8901C0.788885 28.8901 5.59156e-05 28.1013 5.59156e-05 27.1282V1.7619Z" transform="matrix(-0.998218 -0.0596741 -0.0598029 0.99821 27.3033 11.8903)" fill="#FF2C55"/>
<path d="M0 1.7619C0 0.788832 0.788832 0 1.7619 0V0C2.73498 0 3.52381 0.788832 3.52381 1.7619V27.1281C3.52381 28.1012 2.73498 28.89 1.7619 28.89V28.89C0.788832 28.89 0 28.1012 0 27.1281V1.7619Z" transform="translate(16.7381 40.72) scale(1 -1)" fill="#FF2C55"/>
</svg>
